<svg xmlns="http://www.w3.org/2000/svg" width="16" height="16" viewBox="0 0 16 16" fill="none">
  <!-- Light bulb idea -->
  <path d="M8 2C5.24 2 3 4.24 3 7C3 8.5 3.7 9.84 4.78 10.72C5.17 11.04 5.5 11.49 5.5 12V12.5C5.5 12.78 5.72 13 6 13H10C10.28 13 10.5 12.78 10.5 12.5V12C10.5 11.49 10.83 11.04 11.22 10.72C12.3 9.84 13 8.5 13 7C13 4.24 10.76 2 8 2Z" fill="#4caf50"/>
  <path d="M6.5 14H9.5" stroke="#4caf50" stroke-width="1.5" stroke-linecap="round"/>
  <path d="M7 15H9" stroke="#4caf50" stroke-width="1.5" stroke-linecap="round"/>
  <!-- Shine/sparkle -->
  <path d="M12 2L12.5 3L13.5 2.5L13 1.5L12 2Z" fill="#4caf50"/>
  <path d="M14 4L14.3 4.8L15.1 4.5L14.8 3.7L14 4Z" fill="#4caf50"/>
</svg>
